<?xml version="1.0" encoding="UTF-8" standalone="no"?><svg xmlns="http://www.w3.org/2000/svg" xmlns:xlink="http://www.w3.org/1999/xlink" contentScriptType="application/ecmascript" contentStyleType="text/css" height="816px" preserveAspectRatio="none" style="width:1429px;height:816px;" version="1.1" viewBox="0 0 1429 816" width="1429px" zoomAndPan="magnify"><defs><filter height="300%" id="f1twsaj0a2hyni" width="300%" x="-1" y="-1"><feGaussianBlur result="blurOut" stdDeviation="2.0"/><feColorMatrix in="blurOut" result="blurOut2" type="matrix" values="0 0 0 0 0 0 0 0 0 0 0 0 0 0 0 0 0 0 .4 0"/><feOffset dx="4.0" dy="4.0" in="blurOut2" result="blurOut3"/><feBlend in="SourceGraphic" in2="blurOut3" mode="normal"/></filter></defs><g><text fill="#000000" font-family="sans-serif" font-size="18" lengthAdjust="spacingAndGlyphs" textLength="241" x="593.3125" y="26.708">composer install vs. update</text><path d="M746.625,30.9531 L746.625,47.0859 L726.625,51.0859 L746.625,55.0859 L746.625,71.2188 A0,0 0 0 0 746.625,71.2188 L1076.625,71.2188 A0,0 0 0 0 1076.625,71.2188 L1076.625,40.9531 L1066.625,30.9531 L746.625,30.9531 A0,0 0 0 0 746.625,30.9531 " fill="#FBFB77" filter="url(#f1twsaj0a2hyni)" style="stroke: #A80036; stroke-width: 1.0;"/><path d="M1066.625,30.9531 L1066.625,40.9531 L1076.625,40.9531 L1066.625,30.9531 " fill="#FBFB77" style="stroke: #A80036; stroke-width: 1.0;"/><text fill="#000000" font-family="sans-serif" font-size="13" lengthAdjust="spacingAndGlyphs" textLength="178" x="752.625" y="48.02">Read the documentation on</text><text fill="#000000" font-family="sans-serif" font-size="13" lengthAdjust="spacingAndGlyphs" textLength="309" x="752.625" y="63.1528">https://getcomposer.org/doc/01-basic-usage.md</text><ellipse cx="716.625" cy="51.0859" fill="#000000" filter="url(#f1twsaj0a2hyni)" rx="10" ry="10" style="stroke: none; stroke-width: 1.0;"/><rect fill="#FEFECE" filter="url(#f1twsaj0a2hyni)" height="33.9688" rx="12.5" ry="12.5" style="stroke: #A80036; stroke-width: 1.5;" width="349" x="542.125" y="91.2188"/><text fill="#000000" font-family="sans-serif" font-size="12" lengthAdjust="spacingAndGlyphs" textLength="329" x="552.125" y="112.3574">update list of packages and versions from packagist</text><polygon fill="#FEFECE" filter="url(#f1twsaj0a2hyni)" points="688.625,145.1875,744.625,145.1875,756.625,157.1875,744.625,169.1875,688.625,169.1875,676.625,157.1875,688.625,145.1875" style="stroke: #A80036; stroke-width: 1.5;"/><text fill="#000000" font-family="sans-serif" font-size="11" lengthAdjust="spacingAndGlyphs" textLength="56" x="688.625" y="160.9956">command</text><text fill="#000000" font-family="sans-serif" font-size="11" lengthAdjust="spacingAndGlyphs" textLength="39" x="637.625" y="154.5933">update</text><text fill="#000000" font-family="sans-serif" font-size="11" lengthAdjust="spacingAndGlyphs" textLength="34" x="756.625" y="154.5933">install</text><rect fill="#FEFECE" filter="url(#f1twsaj0a2hyni)" height="33.9688" rx="12.5" ry="12.5" style="stroke: #A80036; stroke-width: 1.5;" width="401" x="205.25" y="179.1875"/><text fill="#000000" font-family="sans-serif" font-size="12" lengthAdjust="spacingAndGlyphs" textLength="381" x="215.25" y="200.3262">update list of packages and versions from other repositories</text><rect fill="#FEFECE" filter="url(#f1twsaj0a2hyni)" height="33.9688" rx="12.5" ry="12.5" style="stroke: #A80036; stroke-width: 1.5;" width="356" x="227.75" y="248.1563"/><text fill="#000000" font-family="sans-serif" font-size="12" lengthAdjust="spacingAndGlyphs" textLength="336" x="237.75" y="269.2949">get list of packages and versions from composer.json</text><polygon fill="#FEFECE" filter="url(#f1twsaj0a2hyni)" points="330.25,377.9297,481.25,377.9297,493.25,389.9297,481.25,401.9297,330.25,401.9297,318.25,389.9297,330.25,377.9297" style="stroke: #A80036; stroke-width: 1.5;"/><text fill="#000000" font-family="sans-serif" font-size="11" lengthAdjust="spacingAndGlyphs" textLength="151" x="330.25" y="393.7378">Is composer.lock present?</text><text fill="#000000" font-family="sans-serif" font-size="11" lengthAdjust="spacingAndGlyphs" textLength="20" x="298.25" y="387.3354">yes</text><text fill="#000000" font-family="sans-serif" font-size="11" lengthAdjust="spacingAndGlyphs" textLength="14" x="493.25" y="387.3354">no</text><rect fill="#FEFECE" filter="url(#f1twsaj0a2hyni)" height="33.9688" rx="12.5" ry="12.5" style="stroke: #A80036; stroke-width: 1.5;" width="346" x="38" y="460.332"/><text fill="#000000" font-family="sans-serif" font-size="12" lengthAdjust="spacingAndGlyphs" textLength="326" x="48" y="481.4707">update package version/commit-id in composer.lock</text><polygon fill="#FEFECE" filter="url(#f1twsaj0a2hyni)" points="69.5,411.9297,352.5,411.9297,364.5,423.9297,352.5,435.9297,69.5,435.9297,57.5,423.9297,69.5,411.9297" style="stroke: #A80036; stroke-width: 1.5;"/><text fill="#000000" font-family="sans-serif" font-size="11" lengthAdjust="spacingAndGlyphs" textLength="20" x="215" y="446.1401">yes</text><text fill="#000000" font-family="sans-serif" font-size="11" lengthAdjust="spacingAndGlyphs" textLength="283" x="69.5" y="427.7378">Is package newer than the one in composer.lock?</text><text fill="#000000" font-family="sans-serif" font-size="11" lengthAdjust="spacingAndGlyphs" textLength="14" x="364.5" y="421.3354">no</text><polygon fill="#FEFECE" filter="url(#f1twsaj0a2hyni)" points="211,518.7031,223,530.7031,211,542.7031,199,530.7031,211,518.7031" style="stroke: #A80036; stroke-width: 1.5;"/><rect fill="#FEFECE" filter="url(#f1twsaj0a2hyni)" height="33.9688" rx="12.5" ry="12.5" style="stroke: #A80036; stroke-width: 1.5;" width="349" x="426" y="411.9297"/><text fill="#000000" font-family="sans-serif" font-size="12" lengthAdjust="spacingAndGlyphs" textLength="329" x="436" y="433.0684">set package and version/commit-id in composer.lock</text><polygon fill="#FEFECE" filter="url(#f1twsaj0a2hyni)" points="405.75,548.7031,417.75,560.7031,405.75,572.7031,393.75,560.7031,405.75,548.7031" style="stroke: #A80036; stroke-width: 1.5;"/><polygon fill="#FEFECE" filter="url(#f1twsaj0a2hyni)" points="272.25,317.125,539.25,317.125,551.25,329.125,539.25,341.125,272.25,341.125,260.25,329.125,272.25,317.125" style="stroke: #A80036; stroke-width: 1.5;"/><text fill="#000000" font-family="sans-serif" font-size="11" lengthAdjust="spacingAndGlyphs" textLength="20" x="409.75" y="351.3354">yes</text><text fill="#000000" font-family="sans-serif" font-size="11" lengthAdjust="spacingAndGlyphs" textLength="267" x="272.25" y="332.9331">Packages left to process from composer.json?</text><text fill="#000000" font-family="sans-serif" font-size="11" lengthAdjust="spacingAndGlyphs" textLength="14" x="246.25" y="326.5308">no</text><rect fill="#FEFECE" filter="url(#f1twsaj0a2hyni)" height="33.9688" rx="12.5" ry="12.5" style="stroke: #A80036; stroke-width: 1.5;" width="401" x="827" y="227.5898"/><text fill="#000000" font-family="sans-serif" font-size="12" lengthAdjust="spacingAndGlyphs" textLength="381" x="837" y="248.7285">update list of packages and versions from other repositories</text><rect fill="#FEFECE" filter="url(#f1twsaj0a2hyni)" height="33.9688" rx="12.5" ry="12.5" style="stroke: #A80036; stroke-width: 1.5;" width="356" x="849.5" y="296.5586"/><text fill="#000000" font-family="sans-serif" font-size="12" lengthAdjust="spacingAndGlyphs" textLength="336" x="859.5" y="317.6973">get list of packages and versions from composer.json</text><rect fill="#FEFECE" filter="url(#f1twsaj0a2hyni)" height="33.9688" rx="12.5" ry="12.5" style="stroke: #A80036; stroke-width: 1.5;" width="349" x="853" y="426.332"/><text fill="#000000" font-family="sans-serif" font-size="12" lengthAdjust="spacingAndGlyphs" textLength="329" x="863" y="447.4707">set package and version/commit-id in composer.lock</text><polygon fill="#FEFECE" filter="url(#f1twsaj0a2hyni)" points="894,365.5273,1161,365.5273,1173,377.5273,1161,389.5273,894,389.5273,882,377.5273,894,365.5273" style="stroke: #A80036; stroke-width: 1.5;"/><text fill="#000000" font-family="sans-serif" font-size="11" lengthAdjust="spacingAndGlyphs" textLength="20" x="1031.5" y="399.7378">yes</text><text fill="#000000" font-family="sans-serif" font-size="11" lengthAdjust="spacingAndGlyphs" textLength="267" x="894" y="381.3354">Packages left to process from composer.json?</text><text fill="#000000" font-family="sans-serif" font-size="11" lengthAdjust="spacingAndGlyphs" textLength="14" x="868" y="374.9331">no</text><polygon fill="#FEFECE" filter="url(#f1twsaj0a2hyni)" points="952,179.1875,1103,179.1875,1115,191.1875,1103,203.1875,952,203.1875,940,191.1875,952,179.1875" style="stroke: #A80036; stroke-width: 1.5;"/><text fill="#000000" font-family="sans-serif" font-size="11" lengthAdjust="spacingAndGlyphs" textLength="14" x="1031.5" y="213.3979">no</text><text fill="#000000" font-family="sans-serif" font-size="11" lengthAdjust="spacingAndGlyphs" textLength="151" x="952" y="194.9956">Is composer.lock present?</text><text fill="#000000" font-family="sans-serif" font-size="11" lengthAdjust="spacingAndGlyphs" textLength="20" x="1115" y="188.5933">yes</text><polygon fill="#FEFECE" filter="url(#f1twsaj0a2hyni)" points="1027.5,508.7031,1039.5,520.7031,1027.5,532.7031,1015.5,520.7031,1027.5,508.7031" style="stroke: #A80036; stroke-width: 1.5;"/><polygon fill="#FEFECE" filter="url(#f1twsaj0a2hyni)" points="716.625,600.7031,728.625,612.7031,716.625,624.7031,704.625,612.7031,716.625,600.7031" style="stroke: #A80036; stroke-width: 1.5;"/><path d="M886.625,634.7031 L886.625,696.2344 L866.625,700.2344 L886.625,704.2344 L886.625,765.7656 A0,0 0 0 0 886.625,765.7656 L1417.625,765.7656 A0,0 0 0 0 1417.625,765.7656 L1417.625,644.7031 L1407.625,634.7031 L886.625,634.7031 A0,0 0 0 0 886.625,634.7031 " fill="#FBFB77" filter="url(#f1twsaj0a2hyni)" style="stroke: #A80036; stroke-width: 1.0;"/><path d="M1407.625,634.7031 L1407.625,644.7031 L1417.625,644.7031 L1407.625,634.7031 " fill="#FBFB77" style="stroke: #A80036; stroke-width: 1.0;"/><text fill="#000000" font-family="sans-serif" font-size="13" lengthAdjust="spacingAndGlyphs" textLength="489" x="892.625" y="651.77">Committing this file to VC is important because it will cause anyone who sets</text><text fill="#000000" font-family="sans-serif" font-size="13" lengthAdjust="spacingAndGlyphs" textLength="510" x="892.625" y="666.9028">up the project to use the exact same versions of the dependencies that you are</text><text fill="#000000" font-family="sans-serif" font-size="13" lengthAdjust="spacingAndGlyphs" textLength="477" x="892.625" y="682.0356">using. Your CI server, production machines, other developers in your team,</text><text fill="#000000" font-family="sans-serif" font-size="13" lengthAdjust="spacingAndGlyphs" textLength="500" x="892.625" y="697.1685">everything and everyone runs on the same dependencies, which mitigates the</text><text fill="#000000" font-family="sans-serif" font-size="13" lengthAdjust="spacingAndGlyphs" textLength="483" x="892.625" y="712.3013">potential for bugs affecting only some parts of the deployments. Even if you</text><text fill="#000000" font-family="sans-serif" font-size="13" lengthAdjust="spacingAndGlyphs" textLength="446" x="892.625" y="727.4341">develop alone, in six months when reinstalling the project you can feel</text><text fill="#000000" font-family="sans-serif" font-size="13" lengthAdjust="spacingAndGlyphs" textLength="414" x="892.625" y="742.5669">confident the dependencies installed are still working even if your</text><text fill="#000000" font-family="sans-serif" font-size="13" lengthAdjust="spacingAndGlyphs" textLength="348" x="892.625" y="757.6997">dependencies released many new versions since then.</text><rect fill="#FEFECE" filter="url(#f1twsaj0a2hyni)" height="33.9688" rx="12.5" ry="12.5" style="stroke: #A80036; stroke-width: 1.5;" width="300" x="566.625" y="683.25"/><text fill="#000000" font-family="sans-serif" font-size="12" lengthAdjust="spacingAndGlyphs" textLength="280" x="576.625" y="704.3887">install packages according to composer.lock</text><ellipse cx="716.625" cy="795.7656" fill="none" filter="url(#f1twsaj0a2hyni)" rx="10" ry="10" style="stroke: #000000; stroke-width: 1.0;"/><ellipse cx="717.125" cy="796.2656" fill="#000000" filter="url(#f1twsaj0a2hyni)" rx="6" ry="6" style="stroke: none; stroke-width: 1.0;"/><line style="stroke: #A80036; stroke-width: 1.5;" x1="716.625" x2="716.625" y1="61.0859" y2="91.2188"/><polygon fill="#A80036" points="712.625,81.2188,716.625,91.2188,720.625,81.2188,716.625,85.2188" style="stroke: #A80036; stroke-width: 1.0;"/><line style="stroke: #A80036; stroke-width: 1.5;" x1="405.75" x2="405.75" y1="213.1563" y2="248.1563"/><polygon fill="#A80036" points="401.75,238.1563,405.75,248.1563,409.75,238.1563,405.75,242.1563" style="stroke: #A80036; stroke-width: 1.0;"/><line style="stroke: #A80036; stroke-width: 1.5;" x1="211" x2="211" y1="435.9297" y2="460.332"/><polygon fill="#A80036" points="207,450.332,211,460.332,215,450.332,211,454.332" style="stroke: #A80036; stroke-width: 1.0;"/><line style="stroke: #A80036; stroke-width: 1.5;" x1="364.5" x2="394" y1="423.9297" y2="423.9297"/><polygon fill="#A80036" points="390,467.3164,394,477.3164,398,467.3164,394,471.3164" style="stroke: #A80036; stroke-width: 1.5;"/><line style="stroke: #A80036; stroke-width: 1.5;" x1="394" x2="394" y1="423.9297" y2="530.7031"/><line style="stroke: #A80036; stroke-width: 1.5;" x1="394" x2="223" y1="530.7031" y2="530.7031"/><polygon fill="#A80036" points="233,526.7031,223,530.7031,233,534.7031,229,530.7031" style="stroke: #A80036; stroke-width: 1.0;"/><line style="stroke: #A80036; stroke-width: 1.5;" x1="211" x2="211" y1="494.3008" y2="518.7031"/><polygon fill="#A80036" points="207,508.7031,211,518.7031,215,508.7031,211,512.7031" style="stroke: #A80036; stroke-width: 1.0;"/><line style="stroke: #A80036; stroke-width: 1.5;" x1="318.25" x2="211" y1="389.9297" y2="389.9297"/><line style="stroke: #A80036; stroke-width: 1.5;" x1="211" x2="211" y1="389.9297" y2="411.9297"/><polygon fill="#A80036" points="207,401.9297,211,411.9297,215,401.9297,211,405.9297" style="stroke: #A80036; stroke-width: 1.0;"/><line style="stroke: #A80036; stroke-width: 1.5;" x1="493.25" x2="600.5" y1="389.9297" y2="389.9297"/><line style="stroke: #A80036; stroke-width: 1.5;" x1="600.5" x2="600.5" y1="389.9297" y2="411.9297"/><polygon fill="#A80036" points="596.5,401.9297,600.5,411.9297,604.5,401.9297,600.5,405.9297" style="stroke: #A80036; stroke-width: 1.0;"/><line style="stroke: #A80036; stroke-width: 1.5;" x1="211" x2="211" y1="542.7031" y2="560.7031"/><line style="stroke: #A80036; stroke-width: 1.5;" x1="211" x2="393.75" y1="560.7031" y2="560.7031"/><polygon fill="#A80036" points="383.75,556.7031,393.75,560.7031,383.75,564.7031,387.75,560.7031" style="stroke: #A80036; stroke-width: 1.0;"/><line style="stroke: #A80036; stroke-width: 1.5;" x1="600.5" x2="600.5" y1="445.8984" y2="560.7031"/><line style="stroke: #A80036; stroke-width: 1.5;" x1="600.5" x2="417.75" y1="560.7031" y2="560.7031"/><polygon fill="#A80036" points="427.75,556.7031,417.75,560.7031,427.75,564.7031,423.75,560.7031" style="stroke: #A80036; stroke-width: 1.0;"/><line style="stroke: #A80036; stroke-width: 1.5;" x1="405.75" x2="405.75" y1="341.125" y2="377.9297"/><polygon fill="#A80036" points="401.75,367.9297,405.75,377.9297,409.75,367.9297,405.75,371.9297" style="stroke: #A80036; stroke-width: 1.0;"/><line style="stroke: #A80036; stroke-width: 1.5;" x1="405.75" x2="405.75" y1="572.7031" y2="582.7031"/><line style="stroke: #A80036; stroke-width: 1.5;" x1="405.75" x2="797" y1="582.7031" y2="582.7031"/><polygon fill="#A80036" points="793,466.9141,797,456.9141,801,466.9141,797,462.9141" style="stroke: #A80036; stroke-width: 1.5;"/><line style="stroke: #A80036; stroke-width: 1.5;" x1="797" x2="797" y1="329.125" y2="582.7031"/><line style="stroke: #A80036; stroke-width: 1.5;" x1="797" x2="551.25" y1="329.125" y2="329.125"/><polygon fill="#A80036" points="561.25,325.125,551.25,329.125,561.25,333.125,557.25,329.125" style="stroke: #A80036; stroke-width: 1.0;"/><line style="stroke: #A80036; stroke-width: 1.5;" x1="260.25" x2="24" y1="329.125" y2="329.125"/><polygon fill="#A80036" points="20,461.9141,24,471.9141,28,461.9141,24,465.9141" style="stroke: #A80036; stroke-width: 1.5;"/><line style="stroke: #A80036; stroke-width: 1.5;" x1="24" x2="24" y1="329.125" y2="612.7031"/><line style="stroke: #A80036; stroke-width: 1.5;" x1="24" x2="704.625" y1="612.7031" y2="612.7031"/><polygon fill="#A80036" points="694.625,608.7031,704.625,612.7031,694.625,616.7031,698.625,612.7031" style="stroke: #A80036; stroke-width: 1.0;"/><line style="stroke: #A80036; stroke-width: 1.5;" x1="405.75" x2="405.75" y1="282.125" y2="317.125"/><polygon fill="#A80036" points="401.75,307.125,405.75,317.125,409.75,307.125,405.75,311.125" style="stroke: #A80036; stroke-width: 1.0;"/><line style="stroke: #A80036; stroke-width: 1.5;" x1="1027.5" x2="1027.5" y1="261.5586" y2="296.5586"/><polygon fill="#A80036" points="1023.5,286.5586,1027.5,296.5586,1031.5,286.5586,1027.5,290.5586" style="stroke: #A80036; stroke-width: 1.0;"/><line style="stroke: #A80036; stroke-width: 1.5;" x1="1027.5" x2="1027.5" y1="389.5273" y2="426.332"/><polygon fill="#A80036" points="1023.5,416.332,1027.5,426.332,1031.5,416.332,1027.5,420.332" style="stroke: #A80036; stroke-width: 1.0;"/><line style="stroke: #A80036; stroke-width: 1.5;" x1="1027.5" x2="1027.5" y1="460.3008" y2="472.3008"/><line style="stroke: #A80036; stroke-width: 1.5;" x1="1027.5" x2="1214" y1="472.3008" y2="472.3008"/><polygon fill="#A80036" points="1210,434.9141,1214,424.9141,1218,434.9141,1214,430.9141" style="stroke: #A80036; stroke-width: 1.5;"/><line style="stroke: #A80036; stroke-width: 1.5;" x1="1214" x2="1214" y1="377.5273" y2="472.3008"/><line style="stroke: #A80036; stroke-width: 1.5;" x1="1214" x2="1173" y1="377.5273" y2="377.5273"/><polygon fill="#A80036" points="1183,373.5273,1173,377.5273,1183,381.5273,1179,377.5273" style="stroke: #A80036; stroke-width: 1.0;"/><line style="stroke: #A80036; stroke-width: 1.5;" x1="882" x2="841" y1="377.5273" y2="377.5273"/><polygon fill="#A80036" points="837,420.9141,841,430.9141,845,420.9141,841,424.9141" style="stroke: #A80036; stroke-width: 1.5;"/><line style="stroke: #A80036; stroke-width: 1.5;" x1="841" x2="841" y1="377.5273" y2="484.3008"/><line style="stroke: #A80036; stroke-width: 1.5;" x1="841" x2="1027.5" y1="484.3008" y2="484.3008"/><line style="stroke: #A80036; stroke-width: 1.5;" x1="1027.5" x2="1027.5" y1="484.3008" y2="508.7031"/><polygon fill="#A80036" points="1023.5,498.7031,1027.5,508.7031,1031.5,498.7031,1027.5,502.7031" style="stroke: #A80036; stroke-width: 1.0;"/><line style="stroke: #A80036; stroke-width: 1.5;" x1="1027.5" x2="1027.5" y1="330.5273" y2="365.5273"/><polygon fill="#A80036" points="1023.5,355.5273,1027.5,365.5273,1031.5,355.5273,1027.5,359.5273" style="stroke: #A80036; stroke-width: 1.0;"/><line style="stroke: #A80036; stroke-width: 1.5;" x1="1027.5" x2="1027.5" y1="203.1875" y2="227.5898"/><polygon fill="#A80036" points="1023.5,217.5898,1027.5,227.5898,1031.5,217.5898,1027.5,221.5898" style="stroke: #A80036; stroke-width: 1.0;"/><line style="stroke: #A80036; stroke-width: 1.5;" x1="1115" x2="1238" y1="191.1875" y2="191.1875"/><polygon fill="#A80036" points="1234,345.9453,1238,355.9453,1242,345.9453,1238,349.9453" style="stroke: #A80036; stroke-width: 1.5;"/><line style="stroke: #A80036; stroke-width: 1.5;" x1="1238" x2="1238" y1="191.1875" y2="520.7031"/><line style="stroke: #A80036; stroke-width: 1.5;" x1="1238" x2="1039.5" y1="520.7031" y2="520.7031"/><polygon fill="#A80036" points="1049.5,516.7031,1039.5,520.7031,1049.5,524.7031,1045.5,520.7031" style="stroke: #A80036; stroke-width: 1.0;"/><line style="stroke: #A80036; stroke-width: 1.5;" x1="676.625" x2="405.75" y1="157.1875" y2="157.1875"/><line style="stroke: #A80036; stroke-width: 1.5;" x1="405.75" x2="405.75" y1="157.1875" y2="179.1875"/><polygon fill="#A80036" points="401.75,169.1875,405.75,179.1875,409.75,169.1875,405.75,173.1875" style="stroke: #A80036; stroke-width: 1.0;"/><line style="stroke: #A80036; stroke-width: 1.5;" x1="756.625" x2="1027.5" y1="157.1875" y2="157.1875"/><line style="stroke: #A80036; stroke-width: 1.5;" x1="1027.5" x2="1027.5" y1="157.1875" y2="179.1875"/><polygon fill="#A80036" points="1023.5,169.1875,1027.5,179.1875,1031.5,169.1875,1027.5,173.1875" style="stroke: #A80036; stroke-width: 1.0;"/><line style="stroke: #A80036; stroke-width: 1.5;" x1="1027.5" x2="1027.5" y1="532.7031" y2="612.7031"/><line style="stroke: #A80036; stroke-width: 1.5;" x1="1027.5" x2="728.625" y1="612.7031" y2="612.7031"/><polygon fill="#A80036" points="738.625,608.7031,728.625,612.7031,738.625,616.7031,734.625,612.7031" style="stroke: #A80036; stroke-width: 1.0;"/><line style="stroke: #A80036; stroke-width: 1.5;" x1="716.625" x2="716.625" y1="125.1875" y2="145.1875"/><polygon fill="#A80036" points="712.625,135.1875,716.625,145.1875,720.625,135.1875,716.625,139.1875" style="stroke: #A80036; stroke-width: 1.0;"/><line style="stroke: #A80036; stroke-width: 1.5;" x1="716.625" x2="716.625" y1="624.7031" y2="683.25"/><polygon fill="#A80036" points="712.625,673.25,716.625,683.25,720.625,673.25,716.625,677.25" style="stroke: #A80036; stroke-width: 1.0;"/><line style="stroke: #A80036; stroke-width: 1.5;" x1="716.625" x2="716.625" y1="717.2188" y2="785.7656"/><polygon fill="#A80036" points="712.625,775.7656,716.625,785.7656,720.625,775.7656,716.625,779.7656" style="stroke: #A80036; stroke-width: 1.0;"/><!--
@startuml
title composer install vs. update

start

note right
    Read the documentation on 
    https://getcomposer.org/doc/01-basic-usage.md
end note

:update list of packages and versions from packagist;

if (command) then (update)
   
    :update list of packages and versions from other repositories;
    
    :get list of packages and versions from composer.json;
    
    while (Packages left to process from composer.json?) is (yes)
        
        if (Is composer.lock present?) then (yes)
        
        if(Is package newer than the one in composer.lock?) then (yes)
        
            :update package version/commit-id in composer.lock;
            
        else (no) 
        endif;
        
        else (no)
        
        :set package and version/commit-id in composer.lock;
        
        endif;
        
    endwhile (no);
  
else (install)

  if (Is composer.lock present?) then (no)
  
    :update list of packages and versions from other repositories;
    
    :get list of packages and versions from composer.json;
    
    while (Packages left to process from composer.json?) is (yes)
      
      :set package and version/commit-id in composer.lock;
      
    endwhile (no);
    
  else (yes)
  endif;
  
endif;

:install packages according to composer.lock;

note right
  Committing this file to VC is important because it will cause anyone who sets
  up the project to use the exact same versions of the dependencies that you are
  using. Your CI server, production machines, other developers in your team, 
  everything and everyone runs on the same dependencies, which mitigates the 
  potential for bugs affecting only some parts of the deployments. Even if you 
  develop alone, in six months when reinstalling the project you can feel 
  confident the dependencies installed are still working even if your 
  dependencies released many new versions since then.
end note

stop
@enduml

PlantUML version 1.2018.14beta6(Unknown compile time)
(GPL source distribution)
Java Runtime: Java(TM) SE Runtime Environment
JVM: Java HotSpot(TM) 64-Bit Server VM
Java Version: 1.7.0_25-b15
Operating System: Linux
Default Encoding: UTF-8
Language: en
Country: US
--></g></svg>